{"glyphs":{"\u0000":{"ha":0,"x_min":0,"x_max":0,"o":""},"\r":{"ha":306,"x_min":0,"x_max":0,"o":""}," ":{"ha":306,"x_min":0,"x_max":0,"o":""},"!":{"ha":239,"x_min":0,"x_max":142,"o":"m 71 136 q 119 116 99 136 q 139 68 139 96 q 119 20 139 40 q 71 0 99 0 q 23 20 43 0 q 3 68 3 40 q 23 116 3 96 q 71 136 43 136 m 0 968 l 142 968 l 122 207 l 19 207 l 0 968 z "},"\"":{"ha":350,"x_min":0,"x_max":253,"o":"m 185 968 q 233 948 213 968 q 253 899 253 928 q 239 857 253 881 l 194 778 l 146 778 l 172 832 q 126 864 142 839 q 124 860 125 861 q 122 857 124 860 l 78 778 l 29 778 l 56 832 q 16 855 32 836 q 0 899 0 874 q 20 948 0 928 q 68 968 40 968 q 103 959 88 968 q 126 935 118 950 q 151 959 136 950 q 185 968 165 968 z "},"#":{"ha":1131,"x_min":0,"x_max":1033,"o":"m 269 968 l 374 968 l 354 783 l 744 783 l 764 968 l 869 968 l 849 783 l 1033 783 l 1022 679 l 838 679 l 796 289 l 979 289 l 968 183 l 783 183 l 764 0 l 658 0 l 679 183 l 289 183 l 269 0 l 164 0 l 183 183 l 0 183 l 11 289 l 194 289 l 238 679 l 54 679 l 65 783 l 249 783 l 269 968 l 269 968 l 269 968 m 343 679 l 300 289 l 690 289 l 732 679 l 343 679 l 343 679 l 343 679 z "},"$":{"ha":600,"x_min":0,"x_max":503,"o":"m 0 703 q 15 791 0 749 q 56 869 29 833 q 119 929 82 904 q 199 965 156 954 l 199 1074 l 304 1074 l 304 967 q 379 937 344 958 q 440 885 414 915 q 480 815 465 854 q 494 733 494 776 l 385 733 q 374 783 385 760 q 346 825 364 807 q 303 853 328 843 q 253 863 279 863 q 197 849 222 863 q 151 812 171 835 q 121 760 132 789 q 110 703 110 732 q 139 628 110 658 q 212 572 168 597 q 306 522 256 547 q 401 463 357 497 q 474 382 444 429 q 503 264 503 335 q 488 177 503 219 q 447 99 474 135 q 384 38 421 64 q 304 3 347 13 l 304 -106 l 199 -106 l 199 1 q 122 31 158 10 q 59 83 86 53 q 16 152 32 114 q 0 233 0 190 l 110 233 q 122 183 110 207 q 153 142 133 160 q 199 115 174 125 q 250 106 224 106 q 306 119 281 106 q 351 156 332 133 q 382 207 371 179 q 393 264 393 235 q 364 354 393 319 q 291 415 335 389 q 197 463 247 440 q 102 515 146 485 q 29 590 58 546 q 0 703 0 633 z "},"%":{"ha":893,"x_min":0,"x_max":796,"o":"m 515 968 l 597 968 l 281 0 l 199 0 l 515 968 m 190 972 q 264 958 229 972 q 324 918 299 943 q 365 859 350 893 q 382 786 381 825 l 382 785 l 382 781 q 367 706 382 740 q 326 646 351 672 q 265 605 300 619 q 190 590 229 590 q 117 605 151 590 q 56 646 82 619 q 15 706 31 672 q 0 781 0 740 q 15 855 0 819 q 56 916 31 890 q 117 957 82 942 q 190 972 151 972 m 606 378 q 678 363 644 378 q 738 324 713 349 q 779 265 764 299 q 796 192 794 231 l 796 188 q 781 113 796 147 q 740 52 767 78 q 679 11 714 26 q 606 -4 644 -4 q 531 11 565 -4 q 470 52 496 26 q 429 113 444 78 q 414 188 414 147 q 429 261 414 226 q 470 322 444 296 q 531 363 496 349 q 606 378 565 378 m 703 192 q 672 258 700 231 q 606 285 644 285 q 537 256 565 285 q 508 188 508 228 q 537 119 508 147 q 606 90 565 90 q 674 119 646 90 q 703 188 703 147 l 703 192 m 289 786 q 258 851 286 825 q 190 878 231 878 q 122 849 150 878 q 93 781 93 821 q 122 712 93 740 q 190 683 150 683 q 260 712 231 683 q 289 781 289 740 l 289 785 l 289 786 z "},"&":{"ha":824,"x_min":0,"x_max":726,"o":"m 514 804 q 499 733 514 765 q 460 672 485 700 q 404 617 436 643 q 338 565 372 590 q 419 410 375 486 q 511 261 463 335 q 533 358 533 310 l 644 358 q 627 256 644 306 q 581 165 610 207 q 651 78 615 121 q 726 0 688 36 l 576 0 q 541 40 558 19 q 507 85 524 61 q 399 20 458 44 q 279 -4 340 -4 q 172 17 222 -4 q 83 76 121 39 q 22 163 44 113 q 0 271 0 213 q 17 373 0 325 q 61 463 33 421 q 126 542 89 506 q 203 610 163 578 q 184 687 192 647 q 176 767 176 726 q 188 841 176 804 q 220 907 199 878 q 274 954 242 936 q 351 972 307 972 q 417 959 388 972 q 469 924 447 946 q 502 870 490 901 q 514 804 514 839 m 249 499 q 197 453 222 478 q 153 401 172 429 q 122 340 133 372 q 110 274 110 308 q 123 208 110 239 q 159 155 136 178 q 213 119 182 132 q 278 106 243 106 q 365 124 322 106 q 442 174 407 143 q 339 332 388 251 q 249 499 290 413 m 297 679 q 374 744 343 714 q 404 804 404 774 q 390 845 404 828 q 351 863 376 863 q 303 834 319 863 q 286 767 286 806 q 297 679 286 726 z "},"'":{"ha":233,"x_min":0,"x_max":136,"o":"m 68 968 q 116 948 96 968 q 136 899 136 928 q 122 857 136 881 l 78 778 l 29 778 l 56 832 q 16 855 32 836 q 0 899 0 874 q 20 948 0 928 q 68 968 40 968 z "},"(":{"ha":328,"x_min":0,"x_max":231,"o":"m 114 0 q 28 246 57 126 q 0 483 0 365 q 28 722 0 601 q 114 968 57 842 l 231 968 q 137 720 168 839 q 106 484 106 601 q 137 248 106 367 q 231 0 168 129 l 114 0 z "},")":{"ha":328,"x_min":0,"x_max":231,"o":"m 117 0 l 0 0 q 94 248 63 129 q 125 484 125 367 q 94 720 125 601 q 0 968 63 839 l 117 968 q 202 722 174 842 q 231 483 231 601 q 202 246 231 365 q 117 0 174 126 z "},"*":{"ha":299,"x_min":0,"x_max":201,"o":"m 78 772 l 78 831 l 22 799 l 0 839 l 57 869 l 0 901 l 22 942 l 78 910 l 78 968 l 124 968 l 124 910 l 179 942 l 201 901 l 144 869 l 201 839 l 179 799 l 124 831 l 124 772 l 78 772 l 78 772 l 78 772 z "},"+":{"ha":488,"x_min":0,"x_max":390,"o":"m 142 236 l 142 379 l 0 379 l 0 483 l 142 483 l 142 626 l 247 626 l 247 483 l 390 483 l 390 379 l 247 379 l 247 236 l 142 236 l 142 236 l 142 236 z "},",":{"ha":233,"x_min":0,"x_max":136,"o":"m 68 136 q 116 116 96 136 q 136 68 136 96 q 122 25 136 49 l 78 -53 l 29 -53 l 56 1 q 16 24 32 6 q 0 68 0 43 q 20 116 0 96 q 68 136 40 136 z "},"-":{"ha":429,"x_min":0,"x_max":332,"o":"m 0 483 l 332 483 l 332 379 l 0 379 l 0 483 l 0 483 l 0 483 z "},".":{"ha":233,"x_min":0,"x_max":136,"o":"m 68 136 q 116 116 96 136 q 136 68 136 96 q 116 20 136 40 q 68 0 96 0 q 20 20 40 0 q 0 68 0 40 q 20 116 0 96 q 68 136 40 136 z "},"/":{"ha":518,"x_min":0,"x_max":421,"o":"m 315 968 l 421 968 l 106 0 l 0 0 l 315 968 l 315 968 l 315 968 z "},":":{"ha":233,"x_min":0,"x_max":136,"o":"m 68 136 q 116 116 96 136 q 136 68 136 96 q 116 20 136 40 q 68 0 96 0 q 20 20 40 0 q 0 68 0 40 q 20 116 0 96 q 68 136 40 136 m 68 500 q 116 480 96 500 q 136 432 136 460 q 116 383 136 403 q 68 363 96 363 q 20 383 40 363 q 0 432 0 403 q 20 480 0 460 q 68 500 40 500 z "},";":{"ha":233,"x_min":0,"x_max":136,"o":"m 68 136 q 116 116 96 136 q 136 68 136 96 q 122 25 136 49 l 78 -53 l 29 -53 l 56 1 q 16 24 32 6 q 0 68 0 43 q 20 116 0 96 q 68 136 40 136 m 68 500 q 116 480 96 500 q 136 432 136 460 q 116 383 136 403 q 68 363 96 363 q 20 383 40 363 q 0 432 0 403 q 20 480 0 460 q 68 500 40 500 z "},"<":{"ha":363,"x_min":0,"x_max":265,"o":"m 0 485 l 213 604 l 265 513 l 97 432 l 265 350 l 213 258 l 0 378 l 0 485 l 0 485 l 0 485 z "},"=":{"ha":488,"x_min":0,"x_max":390,"o":"m 0 571 l 390 571 l 390 465 l 0 465 l 0 571 l 0 571 l 0 571 m 0 397 l 390 397 l 390 292 l 0 292 l 0 397 l 0 397 l 0 397 z "},">":{"ha":363,"x_min":0,"x_max":265,"o":"m 265 485 l 265 485 l 265 378 l 53 258 l 0 350 l 168 432 l 0 513 l 53 604 l 265 485 z "},"?":{"ha":600,"x_min":0,"x_max":503,"o":"m 393 703 q 382 760 393 732 q 351 812 371 789 q 306 849 332 835 q 250 863 281 863 q 199 853 224 863 q 153 825 174 843 q 122 783 133 807 q 110 733 110 760 l 0 733 q 21 827 0 783 q 76 903 42 871 q 156 954 111 936 q 250 972 201 972 q 350 949 304 972 q 430 889 396 926 q 483 803 464 851 q 503 703 503 754 q 481 579 503 635 q 414 472 458 524 q 342 406 381 435 q 271 340 304 376 q 231 278 243 310 q 219 207 219 247 l 110 207 q 131 323 110 276 q 183 404 151 369 q 251 467 215 439 q 319 526 288 494 q 372 599 351 557 q 393 703 393 640 m 165 136 q 213 116 193 136 q 233 68 233 96 q 213 20 233 40 q 165 0 193 0 q 117 20 138 0 q 97 68 97 40 q 117 116 97 96 q 165 136 138 136 z "},"@":{"ha":1157,"x_min":0,"x_max":978,"o":"m 489 972 q 679 934 590 972 q 835 830 768 896 q 940 675 901 764 q 978 485 978 586 q 958 358 978 426 q 903 231 939 289 q 813 133 867 172 q 692 93 760 93 q 608 110 646 93 q 544 156 569 126 q 510 228 519 186 q 513 318 500 269 q 464 300 489 307 q 413 293 439 293 q 342 309 372 293 q 291 351 311 325 q 265 413 271 378 q 267 485 258 447 q 299 558 276 524 q 354 619 322 593 q 424 660 386 644 q 503 675 463 675 q 600 643 561 675 l 610 679 l 715 679 l 617 317 q 626 234 604 269 q 696 199 647 199 q 772 231 740 199 q 825 308 804 263 q 856 403 846 354 q 867 485 867 451 q 837 633 867 564 q 756 753 807 701 q 635 834 704 804 q 489 864 567 864 q 341 834 410 864 q 221 753 272 804 q 140 633 169 701 q 110 485 110 564 q 140 337 110 406 q 221 217 169 268 q 341 135 272 165 q 489 106 410 106 l 489 -3 q 299 35 388 -3 q 143 140 210 74 q 38 294 76 206 q 0 485 0 383 q 38 675 0 586 q 143 830 76 764 q 299 934 210 896 q 489 972 388 972 m 556 485 q 557 489 556 488 l 557 490 q 542 555 564 528 q 481 582 521 582 q 406 553 440 582 q 361 485 371 524 q 373 417 351 446 q 435 388 394 388 q 511 416 476 388 q 556 485 546 444 z "},"A":{"ha":726,"x_min":-14,"x_max":643,"o":"m 533 0 l 533 0 l 485 142 l 144 142 l 96 0 l -14 0 l 315 972 l 643 0 l 533 0 m 179 247 l 179 247 l 450 247 l 315 647 l 179 247 z "},"B":{"ha":619,"x_min":0,"x_max":536,"o":"m 0 968 l 224 968 q 294 955 261 968 q 351 918 326 942 q 389 863 375 894 q 403 793 403 831 q 358 678 403 726 q 488 551 440 633 q 536 363 536 469 q 508 217 536 283 q 431 102 481 150 q 315 27 382 54 q 169 0 249 0 l 0 0 l 0 968 m 224 725 q 273 745 253 725 q 293 793 293 765 q 272 842 293 822 q 224 863 251 863 l 110 863 l 110 725 l 224 725 m 110 106 l 169 106 q 261 121 215 106 q 344 167 307 136 q 403 247 381 199 q 426 363 426 296 q 403 477 426 429 q 344 557 381 525 q 262 604 308 589 q 169 619 215 619 l 110 619 l 110 106 z "},"C":{"ha":640,"x_min":0,"x_max":543,"o":"m 489 972 q 543 968 515 972 l 543 858 q 489 863 515 863 q 341 833 410 863 q 221 751 272 803 q 140 631 169 700 q 110 483 110 563 q 140 337 110 406 q 221 217 169 268 q 341 135 272 165 q 489 106 410 106 q 543 110 515 106 l 543 -1 q 516 -3 529 -3 q 489 -4 503 -4 q 299 34 388 -4 q 143 138 210 72 q 38 293 76 204 q 0 483 0 382 q 38 674 0 585 q 143 829 76 763 q 299 934 210 896 q 489 972 388 972 z "},"D":{"ha":682,"x_min":0,"x_max":599,"o":"m 110 968 q 300 931 211 968 q 456 827 389 893 q 560 673 522 761 q 599 483 599 585 q 560 294 599 382 q 456 140 522 206 q 300 38 389 75 q 110 0 211 0 l 0 0 l 0 968 l 110 968 m 110 106 q 258 135 189 106 q 378 217 326 165 q 459 337 429 268 q 489 483 489 406 q 459 631 489 563 q 378 751 429 700 q 258 833 326 803 q 110 863 189 863 l 110 106 z "},"E":{"ha":519,"x_min":0,"x_max":422,"o":"m 0 968 l 422 968 l 422 863 l 110 863 l 110 349 l 368 349 l 368 243 l 110 243 l 110 106 l 422 106 l 422 0 l 0 0 l 0 968 l 0 968 l 0 968 z "},"F":{"ha":506,"x_min":0,"x_max":422,"o":"m 0 968 l 422 968 l 422 863 l 110 863 l 110 349 l 368 349 l 368 243 l 110 243 l 110 0 l 0 0 l 0 968 l 0 968 l 0 968 z "},"G":{"ha":696,"x_min":0,"x_max":599,"o":"m 599 0 l 489 0 q 299 38 388 0 q 143 140 210 75 q 38 294 76 206 q 0 483 0 382 q 38 674 0 585 q 143 829 76 763 q 299 934 210 896 q 489 972 388 972 q 543 968 515 972 l 543 858 q 489 863 515 863 q 341 833 410 863 q 221 751 272 803 q 140 631 169 700 q 110 483 110 563 q 140 337 110 406 q 221 217 169 268 q 341 135 272 165 q 489 106 410 106 l 489 349 l 379 349 l 379 453 l 599 453 l 599 0 z "},"H":{"ha":626,"x_min":0,"x_max":529,"o":"m 0 968 l 110 968 l 110 293 l 418 293 l 418 968 l 529 968 l 529 0 l 418 0 l 418 188 l 110 188 l 110 0 l 0 0 l 0 968 l 0 968 l 0 968 z "},"I":{"ha":207,"x_min":0,"x_max":110,"o":"m 0 968 l 110 968 l 110 0 l 0 0 l 0 968 l 0 968 l 0 968 z "},"J":{"ha":453,"x_min":0,"x_max":356,"o":"m 113 0 l 0 0 l 0 106 l 113 106 q 209 153 172 106 q 246 279 246 200 l 246 863 l 93 863 l 93 968 l 356 968 l 356 275 q 340 171 356 221 q 293 83 324 121 q 217 23 263 46 q 113 0 172 0 z "},"K":{"ha":585,"x_min":0,"x_max":501,"o":"m 0 968 l 110 968 l 110 442 l 392 968 l 501 968 l 263 522 l 501 0 l 388 0 l 203 408 l 110 235 l 110 0 l 0 0 l 0 968 l 0 968 l 0 968 z "},"L":{"ha":519,"x_min":0,"x_max":422,"o":"m 0 968 l 110 968 l 110 106 l 422 106 l 422 0 l 0 0 l 0 968 l 0 968 l 0 968 z "},"M":{"ha":714,"x_min":0,"x_max":617,"o":"m 0 968 l 110 968 l 308 342 l 507 968 l 617 968 l 617 0 l 507 0 l 507 622 l 308 -4 l 110 622 l 110 0 l 0 0 l 0 968 l 0 968 l 0 968 z "},"N":{"ha":618,"x_min":0,"x_max":521,"o":"m 411 968 l 521 968 l 521 0 l 411 0 l 110 708 l 110 0 l 0 0 l 0 968 l 110 968 l 411 260 l 411 968 l 411 968 l 411 968 z "},"O":{"ha":1061,"x_min":0,"x_max":978,"o":"m 489 972 q 678 933 589 972 q 833 828 767 894 q 939 672 900 761 q 978 483 978 583 q 940 293 978 382 q 835 138 901 204 q 679 34 768 72 q 489 -4 590 -4 q 299 34 388 -4 q 143 138 210 72 q 38 293 76 204 q 0 483 0 382 q 38 674 0 585 q 143 829 76 763 q 299 934 210 896 q 489 972 388 972 m 489 863 q 341 833 410 863 q 221 751 272 803 q 140 631 169 700 q 110 483 110 563 q 140 337 110 406 q 221 217 169 268 q 341 135 272 165 q 489 106 410 106 q 635 135 567 106 q 756 217 704 165 q 837 337 807 268 q 867 483 867 406 q 837 631 867 561 q 756 751 807 700 q 635 833 704 803 q 489 863 567 863 z "},"P":{"ha":633,"x_min":0,"x_max":536,"o":"m 0 968 l 169 968 q 315 941 249 968 q 431 866 382 914 q 508 751 481 818 q 536 606 536 685 q 508 460 536 526 q 432 345 481 393 q 316 270 383 297 q 169 243 249 243 l 110 243 l 110 0 l 0 0 l 0 968 m 110 349 l 169 349 q 262 364 215 349 q 344 411 308 379 q 403 491 381 443 q 426 606 426 539 q 403 720 426 672 q 344 800 381 768 q 261 847 307 832 q 169 863 215 863 l 110 863 l 110 349 z "},"Q":{"ha":1061,"x_min":0,"x_max":978,"o":"m 489 972 q 678 934 589 972 q 833 829 767 896 q 939 674 900 763 q 978 483 978 585 q 952 327 978 401 q 881 192 926 253 q 772 85 835 131 q 633 18 708 40 q 715 4 672 4 l 867 4 l 867 -106 l 711 -106 q 580 -80 640 -106 q 481 -4 519 -54 q 293 36 381 -3 q 140 141 206 75 q 38 295 75 207 q 0 483 0 383 q 38 674 0 585 q 143 829 76 763 q 299 934 210 896 q 489 972 388 972 m 489 863 q 341 833 410 863 q 221 751 272 803 q 140 631 169 700 q 110 483 110 563 q 140 337 110 406 q 221 217 169 268 q 341 135 272 165 q 489 106 410 106 q 635 135 567 106 q 756 217 704 165 q 837 337 807 268 q 867 483 867 406 q 837 631 867 561 q 756 751 807 700 q 635 833 704 803 q 489 863 567 863 z "},"R":{"ha":619,"x_min":0,"x_max":536,"o":"m 0 968 l 169 968 q 315 941 249 968 q 431 866 382 914 q 508 751 481 818 q 536 606 536 685 q 483 408 536 493 q 339 281 429 324 l 536 0 l 407 0 l 240 249 q 175 243 208 243 q 110 243 142 243 l 110 0 l 0 0 l 0 968 m 110 349 l 169 349 q 262 364 215 349 q 344 411 308 379 q 403 491 381 443 q 426 606 426 539 q 403 720 426 672 q 344 800 381 768 q 261 847 307 832 q 169 863 215 863 l 110 863 l 110 349 z "},"S":{"ha":586,"x_min":0,"x_max":503,"o":"m 110 767 q 119 711 110 735 q 145 669 129 688 q 183 634 161 650 q 228 604 204 618 q 328 542 279 574 q 417 471 378 510 q 479 382 456 432 q 503 264 503 332 q 483 164 503 213 q 430 78 464 115 q 350 18 396 40 q 250 -4 304 -4 q 156 14 201 -4 q 76 65 111 32 q 21 140 42 97 q 0 233 0 183 l 110 233 q 122 183 110 207 q 153 142 133 160 q 199 115 174 125 q 250 106 224 106 q 306 119 281 106 q 351 156 332 133 q 382 207 371 179 q 393 264 393 235 q 364 367 393 326 q 291 438 335 407 q 197 495 247 468 q 102 557 146 522 q 29 641 58 592 q 0 767 0 690 q 17 849 0 811 q 65 914 35 886 q 133 957 94 942 q 215 972 172 972 q 296 957 258 972 q 362 914 333 942 q 406 849 390 886 q 422 767 422 811 l 313 767 q 286 835 313 807 q 215 863 260 863 q 140 835 171 863 q 110 767 110 807 z "},"T":{"ha":614,"x_min":0,"x_max":517,"o":"m 314 863 l 314 0 l 203 0 l 203 863 l 0 863 l 0 968 l 517 968 l 517 863 l 314 863 l 314 863 l 314 863 z "},"U":{"ha":597,"x_min":0,"x_max":500,"o":"m 500 279 q 483 173 500 224 q 433 83 465 122 q 355 19 401 43 q 250 -4 308 -4 q 145 19 192 -4 q 67 83 99 43 q 17 173 35 122 q 0 279 0 224 l 0 968 l 110 968 l 110 271 q 152 150 113 194 q 250 106 192 106 q 348 150 308 106 q 390 271 388 194 l 390 968 l 500 968 l 500 279 z "},"V":{"ha":726,"x_min":-14,"x_max":643,"o":"m 533 968 l 643 968 l 315 -4 l -14 968 l 96 968 l 315 321 l 533 968 l 533 968 l 533 968 z "},"W":{"ha":985,"x_min":-14,"x_max":901,"o":"m 790 968 l 901 968 l 572 -4 l 443 376 l 315 -4 l -14 968 l 96 968 l 315 321 l 389 539 l 243 968 l 354 968 l 572 321 l 790 968 l 790 968 l 790 968 z "},"X":{"ha":732,"x_min":-14,"x_max":649,"o":"m 539 968 l 649 968 l 372 483 l 649 0 l 539 0 l 317 388 l 96 0 l -14 0 l 263 483 l -14 968 l 96 968 l 317 581 l 539 968 l 539 968 l 539 968 z "},"Y":{"ha":732,"x_min":-14,"x_max":649,"o":"m -14 968 l 96 968 l 317 513 l 539 968 l 649 968 l 372 400 l 372 0 l 263 0 l 263 400 l -14 968 l -14 968 l -14 968 z "},"Z":{"ha":644,"x_min":0,"x_max":547,"o":"m 0 0 l 0 0 l 390 863 l 47 863 l 47 968 l 547 968 l 157 106 l 547 106 l 547 0 l 0 0 l 0 0 z "},"[":{"ha":308,"x_min":0,"x_max":211,"o":"m 0 1074 l 211 1074 l 211 968 l 106 968 l 106 0 l 211 0 l 211 -106 l 0 -106 l 0 1074 l 0 1074 l 0 1074 z "},"\\":{"ha":518,"x_min":0,"x_max":421,"o":"m 106 968 l 106 968 l 421 0 l 315 0 l 0 968 l 106 968 z "},"]":{"ha":308,"x_min":0,"x_max":211,"o":"m 211 1074 l 211 1074 l 211 -106 l 0 -106 l 0 0 l 106 0 l 106 968 l 0 968 l 0 1074 l 211 1074 z "},"^":{"ha":442,"x_min":0,"x_max":344,"o":"m 124 968 l 124 968 l 221 968 l 344 756 l 228 756 l 172 874 l 117 756 l 0 756 l 124 968 l 124 968 z "},"_":{"ha":799,"x_min":0,"x_max":701,"o":"m 0 0 l 701 0 l 701 -78 l 0 -78 l 0 0 l 0 0 l 0 0 z "},"`":{"ha":324,"x_min":0,"x_max":226,"o":"m 129 968 l 129 968 l 226 843 l 161 843 l 0 968 l 129 968 l 129 968 z "},"a":{"ha":701,"x_min":-14,"x_max":618,"o":"m 301 863 l 618 0 l 507 0 l 458 135 l 146 135 l 96 0 l -14 0 l 301 863 l 301 863 l 301 863 m 419 240 l 301 563 l 185 240 l 419 240 l 419 240 l 419 240 z "},"b":{"ha":576,"x_min":0,"x_max":493,"o":"m 0 0 l 0 863 l 204 863 q 274 849 242 863 q 331 813 307 836 q 369 758 356 789 q 383 689 383 726 q 339 574 383 622 q 451 469 410 536 q 493 310 493 403 q 465 177 493 235 q 390 80 438 119 q 279 20 342 40 q 146 0 217 0 l 0 0 m 110 619 l 204 619 q 253 640 233 619 q 274 689 274 660 q 253 737 274 717 q 204 757 232 757 l 110 757 l 110 619 m 110 106 l 146 106 q 235 118 192 106 q 311 156 278 131 q 364 219 344 181 q 383 310 383 257 q 363 401 383 363 q 310 465 343 440 q 234 502 276 490 q 146 514 192 514 l 110 514 l 110 106 z "},"c":{"ha":589,"x_min":0,"x_max":492,"o":"m 436 867 q 492 863 464 867 l 492 753 q 436 757 464 757 q 309 731 368 757 q 206 662 250 706 q 135 558 161 618 q 110 432 110 499 q 135 305 110 364 q 206 201 161 246 q 309 131 250 157 q 436 106 368 106 q 492 110 464 106 l 492 0 q 436 -4 464 -4 q 267 30 346 -4 q 128 123 188 64 q 34 262 68 182 q 0 432 0 342 q 34 601 0 522 q 128 740 68 681 q 267 833 188 799 q 436 867 346 867 z "},"d":{"ha":629,"x_min":0,"x_max":546,"o":"m 0 863 l 110 863 q 280 829 200 863 q 419 738 360 796 q 512 601 478 679 q 546 432 546 522 q 512 263 546 342 q 419 125 478 183 q 280 33 360 67 q 110 0 200 0 l 0 0 l 0 863 m 110 106 q 237 131 178 106 q 340 201 296 157 q 410 305 385 246 q 436 432 436 364 q 410 558 436 499 q 340 662 385 618 q 237 731 296 706 q 110 757 178 757 l 110 106 z "},"e":{"ha":500,"x_min":0,"x_max":403,"o":"m 0 863 l 0 863 l 403 863 l 403 757 l 110 757 l 110 349 l 347 349 l 347 243 l 110 243 l 110 106 l 403 106 l 403 0 l 0 0 l 0 863 l 0 863 z "},"f":{"ha":486,"x_min":0,"x_max":403,"o":"m 0 863 l 0 863 l 403 863 l 403 757 l 110 757 l 110 349 l 347 349 l 347 243 l 110 243 l 110 0 l 0 0 l 0 863 l 0 863 z "},"g":{"ha":643,"x_min":0,"x_max":546,"o":"m 436 867 q 492 863 464 867 l 492 753 q 436 757 464 757 q 309 731 368 757 q 206 662 250 706 q 135 558 161 618 q 110 432 110 499 q 135 305 110 364 q 206 201 161 246 q 309 131 250 157 q 436 106 368 106 l 436 349 l 326 349 l 326 453 l 546 453 l 546 0 l 436 0 q 267 33 346 0 q 128 125 188 67 q 34 263 68 183 q 0 432 0 342 q 34 601 0 522 q 128 740 68 681 q 267 833 188 799 q 436 867 346 867 z "},"h":{"ha":607,"x_min":0,"x_max":510,"o":"m 399 863 l 510 863 l 510 0 l 399 0 l 399 188 l 110 188 l 110 0 l 0 0 l 0 863 l 110 863 l 110 293 l 399 293 l 399 863 l 399 863 l 399 863 z "},"i":{"ha":207,"x_min":0,"x_max":110,"o":"m 0 863 l 110 863 l 110 0 l 0 0 l 0 863 l 0 863 l 0 863 z "},"j":{"ha":419,"x_min":-14,"x_max":322,"o":"m 79 0 l -14 0 l -14 106 l 79 106 q 176 153 139 106 q 213 279 213 200 l 213 757 l 79 757 l 79 863 l 322 863 l 322 275 q 306 171 322 221 q 260 83 290 121 q 184 23 229 46 q 79 0 139 0 z "},"k":{"ha":557,"x_min":0,"x_max":467,"o":"m 110 446 l 356 863 l 467 863 l 243 483 l 467 0 l 353 0 l 181 379 l 110 260 l 110 0 l 0 0 l 0 863 l 110 863 l 110 446 l 110 446 l 110 446 z "},"l":{"ha":500,"x_min":0,"x_max":403,"o":"m 110 863 l 110 863 l 110 106 l 403 106 l 403 0 l 0 0 l 0 863 l 110 863 l 110 863 z "},"m":{"ha":690,"x_min":0,"x_max":593,"o":"m 0 863 l 110 863 l 297 319 l 483 863 l 593 863 l 593 0 l 483 0 l 483 543 l 297 0 l 110 543 l 110 0 l 0 0 l 0 863 l 0 863 l 0 863 z "},"n":{"ha":599,"x_min":0,"x_max":501,"o":"m 392 863 l 501 863 l 501 0 l 392 0 l 110 619 l 110 0 l 0 0 l 0 863 l 110 863 l 392 243 l 392 863 l 392 863 l 392 863 z "},"o":{"ha":956,"x_min":0,"x_max":872,"o":"m 436 867 q 605 833 525 867 q 744 739 685 799 q 838 600 803 679 q 872 432 872 521 q 838 262 872 342 q 744 123 804 182 q 606 30 685 64 q 436 -4 526 -4 q 267 30 346 -4 q 128 123 188 64 q 34 262 68 182 q 0 432 0 342 q 34 601 0 522 q 128 740 68 681 q 267 833 188 799 q 436 867 346 867 m 436 757 q 309 731 368 757 q 206 662 250 706 q 135 558 161 618 q 110 432 110 499 q 135 305 110 364 q 206 201 161 246 q 309 131 250 157 q 436 106 368 106 q 563 131 504 106 q 667 201 622 157 q 737 305 711 246 q 763 432 763 364 q 737 558 763 499 q 667 661 711 617 q 563 731 622 706 q 436 757 503 757 z "},"p":{"ha":590,"x_min":0,"x_max":493,"o":"m 0 863 l 146 863 q 279 842 217 863 q 390 783 342 822 q 465 685 438 743 q 493 553 493 628 q 465 420 493 478 q 390 323 438 363 q 279 263 342 283 q 146 243 217 243 l 110 243 l 110 0 l 0 0 l 0 863 m 110 349 l 146 349 q 235 361 192 349 q 311 399 278 374 q 364 462 344 424 q 383 553 383 500 q 363 644 383 606 q 310 708 343 683 q 234 745 276 733 q 146 757 192 757 l 110 757 l 110 349 z "},"q":{"ha":956,"x_min":0,"x_max":872,"o":"m 436 867 q 605 833 525 867 q 744 739 685 799 q 838 600 803 679 q 872 432 872 521 q 850 294 872 360 q 789 176 828 229 q 695 82 750 122 q 576 19 640 42 q 663 4 615 4 l 763 4 l 763 -106 l 658 -106 q 527 -80 588 -106 q 428 -4 467 -54 q 261 32 339 -3 q 125 126 183 67 q 33 263 67 185 q 0 432 0 342 q 34 601 0 522 q 128 740 68 681 q 267 833 188 799 q 436 867 346 867 m 436 757 q 309 731 368 757 q 206 662 250 706 q 135 558 161 618 q 110 432 110 499 q 135 305 110 364 q 206 201 161 246 q 309 131 250 157 q 436 106 368 106 q 563 131 504 106 q 667 201 622 157 q 737 305 711 246 q 763 432 763 364 q 737 558 763 499 q 667 661 711 617 q 563 731 622 706 q 436 757 503 757 z "},"r":{"ha":583,"x_min":0,"x_max":493,"o":"m 0 863 l 146 863 q 279 842 217 863 q 390 783 342 822 q 465 685 438 743 q 493 553 493 628 q 440 376 493 447 q 303 272 388 306 l 493 0 l 372 0 l 199 246 q 155 243 176 243 q 110 243 133 243 l 110 0 l 0 0 l 0 863 m 110 349 l 146 349 q 235 361 192 349 q 311 399 278 374 q 364 462 344 424 q 383 553 383 500 q 363 644 383 606 q 310 708 343 683 q 234 745 276 733 q 146 757 192 757 l 110 757 l 110 349 z "},"s":{"ha":561,"x_min":0,"x_max":478,"o":"m 478 233 q 459 141 478 185 q 408 65 440 97 q 332 15 375 33 q 239 -4 289 -4 q 146 15 189 -4 q 70 65 103 33 q 19 141 38 97 q 0 233 0 185 l 110 233 q 120 183 110 207 q 148 142 131 160 q 189 115 165 125 q 239 106 213 106 q 289 115 265 106 q 330 142 313 125 q 358 183 347 160 q 368 233 368 207 q 341 315 368 279 q 273 383 314 351 q 184 444 232 414 q 95 506 136 474 q 27 576 54 539 q 0 663 0 614 q 17 744 0 707 q 65 809 35 782 q 133 851 94 836 q 215 867 172 867 q 296 851 258 867 q 362 809 333 836 q 406 744 390 782 q 422 663 422 707 l 313 663 q 286 730 313 703 q 215 757 260 757 q 140 730 171 757 q 110 663 110 703 q 137 607 110 633 q 205 553 164 581 q 294 494 246 525 q 383 424 342 463 q 451 340 424 386 q 478 233 478 293 z "},"t":{"ha":590,"x_min":0,"x_max":493,"o":"m 0 757 l 0 863 l 493 863 l 493 757 l 301 757 l 301 0 l 192 0 l 192 757 l 0 757 l 0 757 l 0 757 z "},"u":{"ha":582,"x_min":0,"x_max":485,"o":"m 242 -4 q 138 19 183 -4 q 63 81 93 43 q 16 170 32 119 q 0 275 0 221 l 0 863 l 110 863 l 110 279 q 147 153 110 200 q 242 106 183 106 q 338 153 301 106 q 375 279 375 200 l 375 863 l 485 863 l 485 275 q 469 170 485 221 q 422 81 453 119 q 347 19 392 43 q 242 -4 301 -4 z "},"v":{"ha":650,"x_min":-14,"x_max":567,"o":"m -14 863 l 96 863 l 276 319 l 456 863 l 567 863 l 276 -4 l -14 863 l -14 863 l -14 863 z "},"w":{"ha":907,"x_min":-14,"x_max":824,"o":"m 243 863 l 354 863 l 533 319 l 714 863 l 824 863 l 533 -4 l 406 381 l 276 -4 l -14 863 l 96 863 l 276 319 l 350 543 l 243 863 l 243 863 l 243 863 z "},"x":{"ha":672,"x_min":-14,"x_max":589,"o":"m -14 863 l 96 863 l 288 528 l 479 863 l 589 863 l 343 431 l 589 0 l 479 0 l 288 335 l 96 0 l -14 0 l 232 431 l -14 863 l -14 863 l -14 863 z "},"y":{"ha":711,"x_min":-14,"x_max":628,"o":"m -14 863 l 96 863 l 307 490 l 518 863 l 628 863 l 363 397 l 363 0 l 251 0 l 251 397 l -14 863 l -14 863 l -14 863 z "},"z":{"ha":610,"x_min":0,"x_max":513,"o":"m 0 0 l 353 757 l 47 757 l 47 863 l 513 863 l 160 106 l 513 106 l 513 0 l 0 0 l 0 0 l 0 0 z "},"{":{"ha":413,"x_min":0,"x_max":315,"o":"m 211 642 q 191 553 211 593 q 139 483 171 513 q 191 415 171 456 q 211 326 211 375 l 211 106 q 240 28 211 57 q 315 0 269 0 l 315 -106 q 231 -90 269 -106 q 165 -45 193 -74 q 122 22 138 -17 q 106 106 106 60 l 106 326 q 76 403 106 375 q 0 432 47 432 l 0 536 q 76 565 47 536 q 106 642 106 593 l 106 863 q 122 947 106 908 q 165 1013 138 985 q 231 1058 193 1042 q 315 1074 269 1074 l 315 968 q 240 940 269 968 q 211 863 211 911 l 211 642 z "},"|":{"ha":203,"x_min":0,"x_max":106,"o":"m 0 1074 l 106 1074 l 106 -106 l 0 -106 l 0 1074 l 0 1074 l 0 1074 z "},"}":{"ha":413,"x_min":0,"x_max":315,"o":"m 104 642 l 104 863 q 75 940 104 911 q 0 968 46 968 l 0 1074 q 84 1058 46 1074 q 150 1013 122 1042 q 194 947 178 985 q 210 863 210 908 l 210 642 q 239 565 210 593 q 315 536 268 536 l 315 432 q 239 403 268 432 q 210 326 210 375 l 210 106 q 194 22 210 60 q 150 -45 178 -17 q 84 -90 122 -74 q 0 -106 46 -106 l 0 0 q 75 28 46 0 q 104 106 104 57 l 104 326 q 124 415 104 375 q 176 483 144 456 q 124 553 144 513 q 104 642 104 593 z "},"~":{"ha":503,"x_min":0,"x_max":406,"o":"m 0 464 q 67 506 35 499 q 132 506 100 513 q 196 484 164 499 q 261 462 228 469 q 331 461 294 454 q 406 504 367 468 l 406 399 q 330 356 365 363 q 261 356 294 349 q 196 378 228 364 q 132 400 164 393 q 67 401 100 407 q 0 360 35 394 l 0 464 z "}}}
